<svg xmlns="http://www.w3.org/2000/svg" xmlns:xlink="http://www.w3.org/1999/xlink" width="260.811" height="108.748" viewBox="0 0 260.811 108.748">
  <defs>
    <linearGradient id="linear-gradient" x1="0.457" y1="-0.526" x2="-0.154" y2="0.5" gradientUnits="objectBoundingBox">
      <stop offset="0" stop-color="#dc3d82"/>
      <stop offset="0.309" stop-color="#f90522"/>
      <stop offset="0.489" stop-color="#e6138b"/>
      <stop offset="1" stop-color="red"/>
    </linearGradient>
  </defs>
  <g id="Group_3" data-name="Group 3" transform="translate(-697.962 -268.239)">
    <path id="Path_14" data-name="Path 14" d="M305.962-78C360.9,38.981,356.233-35.87,372.99-21.827S397.165-48.02,400.461,8.109s30.767-11.226,30.767-41.162,18.68-25.258,20.878,5.613,36.262,43.968,42.854,17.774-6.593-72.969,36.262-40.226S558.693-78,558.693-78Z" transform="translate(397.393 347.239)" fill="url(#linear-gradient)"/>
    <path id="Path_15" data-name="Path 15" d="M305.962-78c24.1,55.716,22.054,20.066,29.405,26.755s5.312-25.766,14.953-2.673,24.474,14.258,24.474,0-5.683-14.7-4.719,0,15.908,20.942,18.8,8.466-2.892-34.754,15.908-19.159S416.834-78,416.834-78Z" transform="translate(392 346.239)" fill="none"/>
  </g>
</svg>
