<svg xmlns="http://www.w3.org/2000/svg" xmlns:xlink="http://www.w3.org/1999/xlink" width="196.343" height="109.228" viewBox="0 0 196.343 109.228">
  <defs>
    <linearGradient id="linear-gradient" x1="0.457" y1="-0.526" x2="-0.154" y2="0.5" gradientUnits="objectBoundingBox">
      <stop offset="0" stop-color="#dc3d82"/>
      <stop offset="0.309" stop-color="#f90522"/>
      <stop offset="0.489" stop-color="#e6138b"/>
      <stop offset="1" stop-color="red"/>
    </linearGradient>
  </defs>
  <path id="Subtraction_1" data-name="Subtraction 1" d="M168.768,205.229h0c-1.86,0-3.409-1.684-4.6-5-1.312-3.642-2.2-9.272-2.636-16.733-.72-12.284-1.643-20.237-2.9-25.028-1.105-4.2-2.494-6.07-4.5-6.07-1.337,0-2.834.787-4.568,1.7-.262.138-.533.28-.807.422a15.33,15.33,0,0,1-7.018,2.12,11.914,11.914,0,0,1-7.739-3.21,6.592,6.592,0,0,0-4.175-1.846,5.4,5.4,0,0,0-3.313,1.286V96h46.165a.35.35,0,0,1,.009.035c.025.111.1.449.2.965H320.152l0,.011a106.422,106.422,0,0,1,2.341,13.95,58.072,58.072,0,0,1,.111,11.524c-.436,4.078-1.479,7.2-3.1,9.286a8.121,8.121,0,0,1-6.739,3.183,20.4,20.4,0,0,1-8.372-2.244,66.647,66.647,0,0,1-11.782-7.475c-9.905-7.583-17.253-11.269-22.461-11.269-4.592,0-7.521,2.8-9.218,8.8-1.511,5.346-1.852,12.534-2.213,20.144-.372,7.843-.757,15.952-2.459,22.73-1.172,4.665-3.239,8.267-6.142,10.705a14.639,14.639,0,0,1-9.549,3.386,20.883,20.883,0,0,1-9.07-2.247,29.562,29.562,0,0,1-8.493-6.409,35.361,35.361,0,0,1-6.529-10.067,40.319,40.319,0,0,1-3.178-13.22c-.555-7.812-2.191-14.468-4.731-19.247-2.243-4.22-5.087-6.64-7.8-6.64-2.313,0-4.4,1.762-5.874,4.961-1.65,3.579-2.522,8.865-2.522,15.288a94.363,94.363,0,0,1-2.391,19.022,160.116,160.116,0,0,1-5.952,20.665,90.759,90.759,0,0,1-7.681,16.592,24.606,24.606,0,0,1-3.917,4.982A5.708,5.708,0,0,1,168.768,205.229Z" transform="translate(-126.5 -96)" fill="url(#linear-gradient)"/>
</svg>
